PathFileType	4	(X/Y/Z)	E:\3-PhD\Data\MocapData\ElaboratedData\012\pre\dynamicElaborations\RunA1\RunA1.trc
DataRate	CameraRate	NumFrames	NumMarkers	Units	OrigDataRate	DataStartFrame
200	200	4	56	mm	200	473
Frame#	Time	FHD			LBHD			RBHD			C7			T10			CLAV			LSHO			LUUPA			LMUPA			LDUPA			LLEP			LMEP			LRAD			LUL			LRFIN			RSHO			RUPA1			RMUPA			RDUPA			RLEP			RMEP			RRAD			RUL			RUFIN			LASI			RASI			USACR			LSACR			RSACR			LTHI1			LTHI2			LTHI3			LTHI4			LLFC			LTIB1			LTIB2			LTIB3			LTIB4			LHEE			LMT1			LMT5			LMT2			RTHI			RTHI2			RTHI3			RTHI4			RLFC			RTIB1			RTIB2			RTIB3			RTIB4			RLMAL			RHEE			RMT1			RMT2			RMT5		
		X1	Y1	Z1	X2	Y2	Z2	X3	Y3	Z3	X4	Y4	Z4	X5	Y5	Z5	X6	Y6	Z6	X7	Y7	Z7	X8	Y8	Z8	X9	Y9	Z9	X10	Y10	Z10	X11	Y11	Z11	X12	Y12	Z12	X13	Y13	Z13	X14	Y14	Z14	X15	Y15	Z15	X16	Y16	Z16	X17	Y17	Z17	X18	Y18	Z18	X19	Y19	Z19	X20	Y20	Z20	X21	Y21	Z21	X22	Y22	Z22	X23	Y23	Z23	X24	Y24	Z24	X25	Y25	Z25	X26	Y26	Z26	X27	Y27	Z27	X28	Y28	Z28	X29	Y29	Z29	X30	Y30	Z30	X31	Y31	Z31	X32	Y32	Z32	X33	Y33	Z33	X34	Y34	Z34	X35	Y35	Z35	X36	Y36	Z36	X37	Y37	Z37	X38	Y38	Z38	X39	Y39	Z39	X40	Y40	Z40	X41	Y41	Z41	X42	Y42	Z42	X43	Y43	Z43	X44	Y44	Z44	X45	Y45	Z45	X46	Y46	Z46	X47	Y47	Z47	X48	Y48	Z48	X49	Y49	Z49	X50	Y50	Z50	X51	Y51	Z51	X52	Y52	Z52	X53	Y53	Z53	X54	Y54	Z54	X55	Y55	Z55	X56	Y56	Z56	

473	2.360000	-3492.619478	1721.208639	475.768310	-3645.804360	1712.628102	369.421276	-3642.389724	1699.133878	513.304579	-3714.043180	1554.001726	432.804153	-3896.269162	1249.366226	387.608763	-3603.515304	1435.194301	442.688779	-3589.676377	1560.118450	324.947114	-3549.857040	1377.732528	188.838481	-3518.371656	1351.318128	214.288333	-3539.891025	1309.443523	176.205861	-3512.250473	1223.225231	179.280973	-3592.844814	1193.745298	212.134508	-3433.557883	1196.061925	444.700543	-3389.566899	1143.515715	409.930644	-3377.556225	1193.449035	511.613588	-3641.338126	1488.956943	607.971292	-3862.144870	1446.826406	687.324083	-3863.002909	1400.239876	706.697183	-3921.046718	1408.235041	699.291270	-3978.515390	1366.407746	718.349675	-3987.460999	1330.083981	655.280914	-3911.640998	1101.935960	818.925359	-3981.958746	1107.893639	852.766826	-3923.313727	1021.438429	871.620214	-3843.872511	993.655444	263.360454	-3812.315759	1002.300239	493.522147	-3966.567124	1129.858952	401.009209	-3992.675714	1105.202603	371.027051	-3987.215941	1102.993816	427.716862	-4041.548252	795.023162	193.806518	-4040.115155	708.760843	188.946542	-3996.273108	689.835896	199.875678	-4087.514855	672.682634	193.974861	-4174.231963	540.454628	199.253743	-4306.383738	384.710463	255.294737	-4349.139698	396.719301	188.461468	-4332.586608	363.220921	211.023209	-4395.026123	316.891610	238.122203	-4587.595494	304.343395	276.138506	-4508.857052	109.127682	268.592253	-4554.449156	134.212651	176.665190	-4515.882423	106.225307	210.138262	-3767.772431	760.326898	534.762230	-3702.389300	748.891419	529.220052	-3673.888592	775.863143	527.646515	-3673.737358	672.670890	501.994736	-3615.859996	584.095201	475.540403	-3595.496839	461.143899	425.330743	-3677.771661	400.935520	463.829997	-3641.291493	387.190455	440.582669	-3647.474576	345.051922	402.360350	-3755.248635	190.882152	382.827236	-3810.100213	155.733327	339.468177	-3587.112314	158.236571	318.007088	-3586.958510	154.978664	360.525913	-3630.707580	119.608317	403.915902	
474	2.365000	-3466.166387	1723.440923	476.926909	-3619.759634	1714.730523	371.078636	-3615.631504	1701.143832	514.854441	-3687.137045	1556.259148	433.765376	-3868.529084	1252.035357	385.247217	-3577.035713	1437.584601	443.662303	-3562.127939	1561.625499	326.016825	-3524.743004	1379.520572	188.970511	-3494.138446	1352.154772	214.552439	-3516.054423	1311.289385	175.615106	-3490.035572	1223.835574	177.910560	-3571.647262	1196.210406	209.778601	-3412.362191	1181.281967	442.088031	-3370.305490	1129.367337	404.590029	-3356.207626	1172.573442	508.853821	-3616.088975	1489.946678	608.903384	-3836.375595	1441.896756	689.419648	-3835.977251	1394.577753	706.988175	-3894.780910	1401.234820	699.849736	-3951.093152	1357.663246	717.983042	-3959.075854	1322.689408	654.242376	-3876.700793	1093.020277	812.393994	-3947.121889	1096.267154	846.389737	-3883.593002	1012.085630	862.627121	-3813.533649	995.771085	262.222757	-3785.710596	1004.947956	492.137993	-3938.241747	1132.731759	397.529373	-3964.384559	1107.490825	366.584140	-3959.633911	1105.767259	423.644945	-4009.793025	794.853942	190.816411	-4008.187321	708.504397	187.501130	-3964.544078	689.931560	199.073682	-4055.632253	672.482822	192.125426	-4143.130738	540.896602	198.768896	-4280.278850	388.720827	255.930817	-4321.899523	402.206428	189.014267	-4306.252209	368.361320	211.575411	-4369.802424	324.150238	239.367219	-4560.728210	320.805525	277.477275	-4494.286272	119.703658	272.221655	-4538.693339	146.304288	180.797286	-4501.516696	116.140478	214.208934	-3743.981569	759.151140	533.809118	-3678.463222	746.650794	529.675948	-3649.463358	773.022467	528.623828	-3650.160233	670.032951	501.702604	-3592.419377	580.764099	476.690975	-3565.942886	458.434978	426.328998	-3645.922105	394.127474	463.054421	-3608.048130	382.284646	439.783996	-3611.831311	339.904636	401.343795	-3712.121159	180.914355	378.963560	-3763.882972	143.288544	334.299992	-3540.352389	157.495773	316.850361	-3540.816674	153.378128	359.231603	-3582.761781	115.231185	400.925939	
475	2.370000	-3439.691844	1725.493805	478.046447	-3593.751387	1716.700954	372.748482	-3588.823082	1702.946559	516.411677	-3660.229711	1558.331327	434.671116	-3841.013919	1254.714667	383.042790	-3550.566696	1439.750725	444.562203	-3534.587695	1562.791790	326.751017	-3499.990798	1380.825441	188.959656	-3470.442768	1352.468098	214.792355	-3492.708705	1312.666405	174.878797	-3468.452353	1224.042674	176.255591	-3550.996587	1198.421796	207.378045	-3391.717593	1165.829295	438.205855	-3351.578333	1114.812457	397.889012	-3335.500333	1150.893889	504.336381	-3590.845697	1490.713039	609.823153	-3810.417920	1435.871233	691.581633	-3808.569847	1387.943200	707.272614	-3868.091129	1393.037280	700.491503	-3923.094210	1347.724325	717.580252	-3930.251212	1314.288643	653.044630	-3840.750089	1083.169462	805.133375	-3911.207614	1083.562523	839.302601	-3842.368624	1001.890482	852.542901	-3783.280248	997.920543	261.263066	-3759.469664	1007.341714	490.888367	-3910.115987	1135.585952	394.211838	-3936.112979	1109.770832	362.574243	-3931.914987	1108.490240	420.110749	-3977.692392	794.307752	187.884332	-3975.609786	707.939082	185.885224	-3932.089977	689.871230	197.939408	-4022.917095	671.749549	190.140176	-4110.482748	540.350447	197.931013	-4252.326086	392.396387	256.479129	-4293.106379	407.145129	189.624669	-4278.456858	373.032510	212.411667	-4343.232075	331.379329	241.075247	-4532.653732	337.154603	278.984268	-4477.340153	131.577269	276.744620	-4520.431875	159.021504	185.582780	-4484.655904	127.270200	219.199620	-3720.581765	757.595786	533.042106	-3654.930670	743.939870	530.211133	-3625.450626	769.635754	529.503774	-3627.358749	666.889836	501.696270	-3569.669872	576.784039	477.759286	-3537.805696	455.309758	427.227069	-3615.843463	387.461716	462.037053	-3576.757401	377.408047	439.021638	-3578.238131	334.882697	400.383090	-3671.842538	172.019185	375.363556	-3720.702616	132.586896	329.402793	-3497.177852	156.505011	316.219961	-3498.264086	151.612697	358.422449	-3538.863741	111.120665	398.630204	
476	2.375000	-3413.213039	1727.357544	479.110375	-3567.776183	1718.514304	374.403212	-3561.976815	1704.531986	517.953321	-3633.343134	1560.185868	435.522348	-3813.706801	1257.378129	381.027963	-3524.126342	1441.674140	445.392286	-3507.102886	1563.616533	327.153330	-3475.585752	1381.638540	188.793369	-3447.259175	1352.265788	214.978898	-3469.814178	1313.574078	173.994648	-3447.455199	1223.897349	174.307471	-3530.824899	1200.373359	204.935699	-3371.673690	1149.919417	433.051097	-3333.334851	1100.114937	389.836261	-3315.548253	1128.699853	498.062109	-3565.605890	1491.241540	610.744077	-3784.243828	1428.783298	693.728735	-3780.795726	1380.361080	707.474691	-3840.901260	1383.691263	701.134065	-3894.455281	1336.660586	717.055726	-3900.919150	1304.944879	651.643130	-3803.804597	1072.574934	797.143662	-3874.196841	1069.973298	831.509891	-3799.846901	991.054298	841.408544	-3753.112336	1000.068601	260.438813	-3733.564456	1009.478045	489.755724	-3882.256376	1138.341082	390.955742	-3907.881462	1111.977335	358.931623	-3904.115085	1111.107133	417.034917	-3945.271588	793.399876	185.018232	-3942.424128	707.078191	184.140984	-3898.955544	689.637878	196.544247	-3989.420469	670.503856	188.051221	-4076.370942	538.864592	196.802319	-4222.548580	395.735853	256.936305	-4262.784312	411.559679	190.274559	-4249.214665	377.261545	213.531896	-4315.318091	338.561686	243.160815	-4503.404634	353.299490	280.564261	-4457.961041	144.491984	282.048501	-4499.644133	172.127524	190.904000	-4465.230129	139.357666	225.007073	-3697.531854	755.743769	532.425705	-3631.753594	740.897652	530.808856	-3601.846781	765.863169	530.282776	-3605.194285	663.386138	501.889180	-3547.518599	572.354247	478.733284	-3511.052934	451.816737	427.994237	-3587.544686	381.022071	460.797374	-3547.437836	372.586531	438.278273	-3546.779848	329.974300	399.474964	-3634.705093	164.124384	371.997390	-3680.900140	123.515120	324.732528	-3457.722618	155.016084	316.072595	-3459.470513	149.452991	358.046350	-3499.195554	107.031348	396.922900	
